<mxfile host="Electron" agent="Mozilla/5.0 (Macintosh; Intel Mac OS X 10_15_7) AppleWebKit/537.36 (KHTML, like Gecko) draw.io/25.0.2 Chrome/128.0.6613.186 Electron/32.2.5 Safari/537.36" version="25.0.2">
  <diagram name="第 1 页" id="b-oQffj_-R5-u1E7umfv">
    <mxGraphModel dx="910" dy="682" grid="1" gridSize="10" guides="1" tooltips="1" connect="1" arrows="1" fold="1" page="1" pageScale="1" pageWidth="827" pageHeight="1169" math="0" shadow="0">
      <root>
        <mxCell id="0" />
        <mxCell id="1" parent="0" />
        <mxCell id="zghJojxTSvdyMBCy6-6A-1" value="hardware update&amp;nbsp;" style="shape=umlFrame;whiteSpace=wrap;html=1;pointerEvents=0;" vertex="1" parent="1">
          <mxGeometry x="110" y="160" width="670" height="460" as="geometry" />
        </mxCell>
        <mxCell id="zghJojxTSvdyMBCy6-6A-16" value="" style="edgeStyle=orthogonalEdgeStyle;rounded=0;orthogonalLoop=1;jettySize=auto;html=1;exitX=-0.014;exitY=0.867;exitDx=0;exitDy=0;exitPerimeter=0;" edge="1" parent="1" source="zghJojxTSvdyMBCy6-6A-24" target="zghJojxTSvdyMBCy6-6A-15">
          <mxGeometry relative="1" as="geometry">
            <mxPoint x="340" y="300" as="sourcePoint" />
            <Array as="points">
              <mxPoint x="230" y="300" />
            </Array>
          </mxGeometry>
        </mxCell>
        <mxCell id="zghJojxTSvdyMBCy6-6A-18" value="" style="edgeStyle=orthogonalEdgeStyle;rounded=0;orthogonalLoop=1;jettySize=auto;html=1;" edge="1" parent="1" source="zghJojxTSvdyMBCy6-6A-15" target="zghJojxTSvdyMBCy6-6A-17">
          <mxGeometry relative="1" as="geometry" />
        </mxCell>
        <mxCell id="zghJojxTSvdyMBCy6-6A-34" style="edgeStyle=orthogonalEdgeStyle;rounded=0;orthogonalLoop=1;jettySize=auto;html=1;exitX=1;exitY=0.5;exitDx=0;exitDy=0;entryX=0.25;entryY=1;entryDx=0;entryDy=0;" edge="1" parent="1" source="zghJojxTSvdyMBCy6-6A-15" target="zghJojxTSvdyMBCy6-6A-24">
          <mxGeometry relative="1" as="geometry" />
        </mxCell>
        <mxCell id="zghJojxTSvdyMBCy6-6A-15" value="searching hardware" style="whiteSpace=wrap;html=1;fontStyle=0;rounded=1;arcSize=10;" vertex="1" parent="1">
          <mxGeometry x="170" y="350" width="120" height="60" as="geometry" />
        </mxCell>
        <mxCell id="zghJojxTSvdyMBCy6-6A-47" style="edgeStyle=orthogonalEdgeStyle;rounded=0;orthogonalLoop=1;jettySize=auto;html=1;entryX=0;entryY=0.5;entryDx=0;entryDy=0;" edge="1" parent="1" source="zghJojxTSvdyMBCy6-6A-17" target="zghJojxTSvdyMBCy6-6A-45">
          <mxGeometry relative="1" as="geometry" />
        </mxCell>
        <mxCell id="zghJojxTSvdyMBCy6-6A-17" value="" style="rhombus;whiteSpace=wrap;html=1;fontStyle=0;rounded=1;arcSize=10;" vertex="1" parent="1">
          <mxGeometry x="190" y="480" width="80" height="80" as="geometry" />
        </mxCell>
        <mxCell id="zghJojxTSvdyMBCy6-6A-20" value="find hardware" style="text;html=1;align=center;verticalAlign=middle;resizable=0;points=[];autosize=1;strokeColor=none;fillColor=none;" vertex="1" parent="1">
          <mxGeometry x="190" y="420" width="100" height="30" as="geometry" />
        </mxCell>
        <mxCell id="zghJojxTSvdyMBCy6-6A-21" style="edgeStyle=orthogonalEdgeStyle;rounded=0;orthogonalLoop=1;jettySize=auto;html=1;exitX=0;exitY=0.5;exitDx=0;exitDy=0;entryX=-0.007;entryY=0.367;entryDx=0;entryDy=0;entryPerimeter=0;" edge="1" parent="1" source="zghJojxTSvdyMBCy6-6A-17" target="zghJojxTSvdyMBCy6-6A-24">
          <mxGeometry relative="1" as="geometry">
            <mxPoint x="339.02" y="268.97" as="targetPoint" />
            <Array as="points">
              <mxPoint x="140" y="520" />
              <mxPoint x="140" y="269" />
            </Array>
          </mxGeometry>
        </mxCell>
        <mxCell id="zghJojxTSvdyMBCy6-6A-22" value="no" style="text;html=1;align=center;verticalAlign=middle;resizable=0;points=[];autosize=1;strokeColor=none;fillColor=none;" vertex="1" parent="1">
          <mxGeometry x="140" y="468" width="40" height="30" as="geometry" />
        </mxCell>
        <mxCell id="zghJojxTSvdyMBCy6-6A-39" value="" style="edgeStyle=orthogonalEdgeStyle;rounded=0;orthogonalLoop=1;jettySize=auto;html=1;entryX=0;entryY=0.5;entryDx=0;entryDy=0;" edge="1" parent="1" source="zghJojxTSvdyMBCy6-6A-24" target="zghJojxTSvdyMBCy6-6A-42">
          <mxGeometry relative="1" as="geometry">
            <mxPoint x="727.5" y="278" as="targetPoint" />
          </mxGeometry>
        </mxCell>
        <mxCell id="zghJojxTSvdyMBCy6-6A-24" value="displayUpdateWindow" style="whiteSpace=wrap;html=1;fontStyle=0;rounded=1;arcSize=10;" vertex="1" parent="1">
          <mxGeometry x="430" y="248" width="145" height="60" as="geometry" />
        </mxCell>
        <mxCell id="zghJojxTSvdyMBCy6-6A-26" value="yes" style="text;html=1;align=center;verticalAlign=middle;resizable=0;points=[];autosize=1;strokeColor=none;fillColor=none;" vertex="1" parent="1">
          <mxGeometry x="290" y="530" width="40" height="30" as="geometry" />
        </mxCell>
        <mxCell id="zghJojxTSvdyMBCy6-6A-28" value="click search" style="text;html=1;align=center;verticalAlign=middle;resizable=0;points=[];autosize=1;strokeColor=none;fillColor=none;" vertex="1" parent="1">
          <mxGeometry x="225" y="278" width="90" height="30" as="geometry" />
        </mxCell>
        <mxCell id="zghJojxTSvdyMBCy6-6A-33" style="edgeStyle=orthogonalEdgeStyle;rounded=0;orthogonalLoop=1;jettySize=auto;html=1;entryX=0.5;entryY=0;entryDx=0;entryDy=0;" edge="1" parent="1" source="zghJojxTSvdyMBCy6-6A-32" target="zghJojxTSvdyMBCy6-6A-24">
          <mxGeometry relative="1" as="geometry" />
        </mxCell>
        <mxCell id="zghJojxTSvdyMBCy6-6A-32" value="" style="ellipse;fillColor=strokeColor;html=1;" vertex="1" parent="1">
          <mxGeometry x="487.5" y="170" width="30" height="30" as="geometry" />
        </mxCell>
        <mxCell id="zghJojxTSvdyMBCy6-6A-35" value="click cancel" style="text;html=1;align=center;verticalAlign=middle;resizable=0;points=[];autosize=1;strokeColor=none;fillColor=none;" vertex="1" parent="1">
          <mxGeometry x="315" y="350" width="80" height="30" as="geometry" />
        </mxCell>
        <mxCell id="zghJojxTSvdyMBCy6-6A-36" value="search complete" style="text;html=1;align=center;verticalAlign=middle;resizable=0;points=[];autosize=1;strokeColor=none;fillColor=none;" vertex="1" parent="1">
          <mxGeometry x="350" y="490" width="110" height="30" as="geometry" />
        </mxCell>
        <mxCell id="zghJojxTSvdyMBCy6-6A-41" value="click finish" style="text;html=1;align=center;verticalAlign=middle;resizable=0;points=[];autosize=1;strokeColor=none;fillColor=none;" vertex="1" parent="1">
          <mxGeometry x="590" y="248" width="80" height="30" as="geometry" />
        </mxCell>
        <mxCell id="zghJojxTSvdyMBCy6-6A-42" value="" style="ellipse;html=1;shape=endState;fillColor=strokeColor;" vertex="1" parent="1">
          <mxGeometry x="730" y="263" width="30" height="30" as="geometry" />
        </mxCell>
        <mxCell id="zghJojxTSvdyMBCy6-6A-45" value="display new hardware found" style="whiteSpace=wrap;html=1;fontStyle=0;rounded=1;arcSize=10;" vertex="1" parent="1">
          <mxGeometry x="487.5" y="490" width="120" height="60" as="geometry" />
        </mxCell>
      </root>
    </mxGraphModel>
  </diagram>
</mxfile>
